<svg xmlns="http://www.w3.org/2000/svg" viewBox="0 0 40.74 39.76"><defs><style>.cls-1{fill:#fff;}.cls-2{fill:none;stroke:#fff;stroke-miterlimit:10;stroke-width:3px;}</style></defs><title>Recurso 4</title><g id="Capa_2" data-name="Capa 2"><g id="Capa_1-2" data-name="Capa 1"><path class="cls-1" d="M12.8,12.38V28.26H9.18V19.74a14.63,14.63,0,0,0-.09-2.22.84.84,0,0,0-.5-.56,5.3,5.3,0,0,0-1.82-.19h-.4V14.92a7.44,7.44,0,0,0,4.48-2.54Z"/><path class="cls-1" d="M23.21,19.25a2.92,2.92,0,0,1,1.38,1.06,7.09,7.09,0,0,1,.48,3.34,7.81,7.81,0,0,1-.38,2.84A3.07,3.07,0,0,1,23.2,28a6.4,6.4,0,0,1-3,.58A6.18,6.18,0,0,1,17.36,28a3.39,3.39,0,0,1-1.52-1.48,7.43,7.43,0,0,1-.46-3.07,12.08,12.08,0,0,1,.23-2.5A2.54,2.54,0,0,1,17,19.25a2.33,2.33,0,0,1-1.13-1.12,4.44,4.44,0,0,1-.38-2,3.87,3.87,0,0,1,1.17-3.07,5.17,5.17,0,0,1,3.5-1q2.69,0,3.72,1.09a4.36,4.36,0,0,1,1,3.11,3.81,3.81,0,0,1-.34,1.85,3.48,3.48,0,0,1-1.39,1.13m-1.77,3.13a2,2,0,0,0-.3-1.29,1.24,1.24,0,0,0-.95-.32,1.17,1.17,0,0,0-.91.31,2.08,2.08,0,0,0-.28,1.3v2.19A2.16,2.16,0,0,0,19.32,26a1.31,1.31,0,0,0,1,.31,1.08,1.08,0,0,0,.91-.32,2.75,2.75,0,0,0,.24-1.43Zm0-6.65a2.14,2.14,0,0,0-.26-1.27,1.24,1.24,0,0,0-1-.31,1.13,1.13,0,0,0-1,.33A2.21,2.21,0,0,0,19,15.73v1.44a1.84,1.84,0,0,0,.28,1.18,1.2,1.2,0,0,0,1,.33,1.16,1.16,0,0,0,1-.32A2.39,2.39,0,0,0,21.45,17Z"/><ellipse class="cls-2" cx="20.37" cy="19.88" rx="18.87" ry="18.38"/><polygon class="cls-1" points="26.6 19.14 30.22 19.14 30.22 15.6 32.67 15.6 32.67 19.14 36.31 19.14 36.31 21.53 32.67 21.53 32.67 25.04 30.22 25.04 30.22 21.53 26.6 21.53 26.6 19.14"/></g></g></svg>