<?xml version="1.0" encoding="utf-8"?>
<!-- Generator: Adobe Illustrator 21.1.0, SVG Export Plug-In . SVG Version: 6.00 Build 0)  -->
<svg version="1.1" id="Capa_1" xmlns="http://www.w3.org/2000/svg" xmlns:xlink="http://www.w3.org/1999/xlink" x="0px" y="0px"
	 viewBox="0 0 140 140" style="enable-background:new 0 0 140 140;" xml:space="preserve">
<style type="text/css">
	.st0{display:none;fill:none;stroke:#A0693F;stroke-width:3;stroke-linecap:round;stroke-linejoin:round;stroke-miterlimit:10;}
	.st1{fill:#666666;}
</style>
<g>
	<g>
		<path class="st1" d="M106.3,124.5H34.4c-0.8,0-1.5-0.7-1.5-1.5V68c0-0.8,0.7-1.5,1.5-1.5c0.8,0,1.5,0.7,1.5,1.5v53.5h69V68
			c0-0.8,0.7-1.5,1.5-1.5c0.8,0,1.5,0.7,1.5,1.5v55C107.7,123.8,107.1,124.5,106.3,124.5z"/>
	</g>
	<g>
		<path class="st1" d="M83.6,100.6H57c-0.8,0-1.5-0.7-1.5-1.5V72.6c0-0.8,0.7-1.5,1.5-1.5h26.5c0.8,0,1.5,0.7,1.5,1.5v26.5
			C85.1,99.9,84.4,100.6,83.6,100.6z M58.5,97.7h23.6V74H58.5V97.7z"/>
	</g>
	<g>
		<path class="st1" d="M34.4,50.6c-0.8,0-1.5-0.7-1.5-1.5V17.8c0-0.8,0.7-1.5,1.5-1.5h15c0.8,0,1.5,0.7,1.5,1.5v17.9
			c0,0.8-0.7,1.5-1.5,1.5s-1.5-0.7-1.5-1.5V19.2H35.8v29.9C35.8,49.9,35.2,50.6,34.4,50.6z"/>
	</g>
	<g>
		<path class="st1" d="M23.6,77.3C23.5,77.3,23.5,77.3,23.6,77.3c-0.5,0-0.8-0.2-1.1-0.5l-8.1-9.1c-0.4-0.4-0.5-1-0.3-1.5
			C14.1,66.2,14,66,14,65.8c0-0.4,0.2-0.8,0.5-1l53.9-48.1c0.4-0.4,1-0.5,1.5-0.3c0.5-0.2,1-0.1,1.5,0.3l53.9,48.1
			c0.3,0.3,0.5,0.6,0.5,1c0,0.2,0,0.4-0.1,0.6c0.2,0.5,0.1,1-0.3,1.5l-8.1,9.1c-0.3,0.3-0.6,0.5-1,0.5c-0.4,0-0.8-0.1-1.1-0.4
			L69.8,36.6L24.5,77C24.3,77.2,23.9,77.3,23.6,77.3z M69.8,33.2c0.3,0,0.7,0.1,1,0.4L116,73.8l6.3-7.1c0-0.1,0-0.2,0-0.3
			c0-0.1,0-0.2,0-0.4L70.2,19.6c-0.2,0.1-0.5,0.1-0.7,0L17.4,66.1c0,0.1,0,0.2,0,0.4c0,0.1,0,0.2,0,0.3l6.3,7.1l45.2-40.2
			C69.1,33.3,69.5,33.2,69.8,33.2z"/>
	</g>
</g>
</svg>
