<?xml version="1.0" encoding="utf-8"?>
<!-- Generator: Adobe Illustrator 21.1.0, SVG Export Plug-In . SVG Version: 6.00 Build 0)  -->
<svg version="1.1" id="Capa_1" xmlns="http://www.w3.org/2000/svg" xmlns:xlink="http://www.w3.org/1999/xlink" x="0px" y="0px"
	 viewBox="0 0 140 140" style="enable-background:new 0 0 140 140;" xml:space="preserve">
<style type="text/css">
	.st0{fill:none;stroke:#666666;stroke-width:0.75;stroke-linecap:round;stroke-linejoin:round;stroke-miterlimit:22.9256;}
	
		.st1{fill-rule:evenodd;clip-rule:evenodd;fill:none;stroke:#666666;stroke-width:0.75;stroke-linecap:round;stroke-linejoin:round;stroke-miterlimit:22.9256;}
</style>
<g>
	<g>
		<path class="st1" d="M77.3,115.9c6.8-1,13.7-3.4,18.4-8.1c5.8-5.8,10.3-15.6,10.3-24.3V53.7c0-8.8-4.5-17.6-10.3-23.4
			C89.9,24.6,81,20.1,72.2,20.1h-4.4c-8.8,0-17.6,4.5-23.4,10.3C38.7,36.1,34.2,45,34.2,53.7v29.8c0,2.2-0.8,3-3,3
			c-1.7,0-2.1-2.5-3.1-2.4c0-11.3,0.1-19.2,0.1-30.4c0-10.9,4.5-20.8,11.6-28c7.2-7.2,17.1-11.6,28-11.6h4.4
			c10.9,0,20.8,4.5,28,11.6c7.2,7.2,11.6,17.1,11.6,28v1.9l-0.2,32c-1,9.3-5.2,17.6-11.4,23.9c-5.9,5.9-13.6,9.9-22.2,11.2
			c-0.2,0.7-0.5,1.3-0.8,1.9V115.9L77.3,115.9z"/>
		<path class="st0" d="M56.8,55.1c3.1,0,5.6,2.5,5.6,5.6c0,3.1-2.5,5.6-5.6,5.6c-3.1,0-5.6-2.5-5.6-5.6
			C51.2,57.6,53.7,55.1,56.8,55.1L56.8,55.1z M83.3,55.1c3.1,0,5.6,2.5,5.6,5.6c0,3.1-2.5,5.6-5.6,5.6s-5.6-2.5-5.6-5.6
			C77.7,57.6,80.2,55.1,83.3,55.1L83.3,55.1z"/>
		<path class="st0" d="M30.7,84.1c-8.8-0.7-15.8-8.5-15.8-18.1c0-9.6,7-17.4,15.8-18.1 M109.3,84.1c8.8-0.7,15.8-8.5,15.8-18.1
			c0-9.6-7-17.4-15.8-18.1 M55.3,81.6c1.5,5.4,7.5,9.4,14.7,9.4c7.2,0,13.2-4,14.7-9.4"/>
		<path class="st0" d="M70,110.5c4.3,0,7.7,3.4,7.7,7.7c0,4.3-3.4,7.7-7.7,7.7s-7.7-3.4-7.7-7.7C62.3,114,65.7,110.5,70,110.5
			L70,110.5z"/>
		<path class="st0" d="M31.1,48.8c11.3-2.3,20.8-9.5,26.1-19.4c7,7.2,16.8,11.7,27.7,11.7c6.9,0,13.3-1.8,18.9-5"/>
	</g>
</g>
</svg>
