<?xml version="1.0" encoding="utf-8"?>
<!-- Generator: Adobe Illustrator 21.1.0, SVG Export Plug-In . SVG Version: 6.00 Build 0)  -->
<svg version="1.1" id="Capa_1" xmlns="http://www.w3.org/2000/svg" xmlns:xlink="http://www.w3.org/1999/xlink" x="0px" y="0px"
	 viewBox="0 0 140 140" style="enable-background:new 0 0 140 140;" xml:space="preserve">
<style type="text/css">
	.st0{display:none;fill:none;stroke:#A0693F;stroke-width:3;stroke-linecap:round;stroke-linejoin:round;stroke-miterlimit:10;}
	.st1{fill:#666666;}
</style>
<g>
	<g>
		<path class="st1" d="M68.1,67.7c-0.8,0-1.5-0.7-1.5-1.5v-7.1c0-0.8,0.7-1.5,1.5-1.5c0.8,0,1.5,0.7,1.5,1.5v7.1
			C69.5,67,68.9,67.7,68.1,67.7z"/>
	</g>
	<g>
		<path class="st1" d="M68.1,105.8c-0.8,0-1.5-0.7-1.5-1.5v-7.1c0-0.8,0.7-1.5,1.5-1.5c0.8,0,1.5,0.7,1.5,1.5v7.1
			C69.5,105.1,68.9,105.8,68.1,105.8z"/>
	</g>
	<g>
		<path class="st1" d="M69.5,97.6c-0.8,0-1.7,0-2.5-0.1c-2.9-0.3-5.8-1.3-8.9-2.3l-0.6-0.2c-0.8-0.3-1.2-1.1-0.9-1.8
			c0.3-0.8,1.1-1.2,1.8-0.9l0.6,0.2c2.9,1,5.6,1.9,8.3,2.2c4.8,0.5,8.7-0.6,10.4-3.1c0.9-1.3,1-2.9,0.3-4.3c-1.3-2.5-4.9-4-9.7-4
			c0,0-0.1,0-0.2,0c-6.1,0-10.6-2-12.4-5.5c-1.2-2.3-1.1-5,0.5-7.2c2.3-3.5,7.3-5.1,13.3-4.4c2.9,0.3,5.9,1.3,8.9,2.3l0.6,0.2
			c0.8,0.3,1.2,1.1,0.9,1.8c-0.3,0.8-1.1,1.2-1.8,0.9l-0.6-0.2c-3.1-1-5.7-1.9-8.3-2.2c-4.8-0.5-8.8,0.6-10.5,3.2
			c-0.9,1.3-1,2.9-0.3,4.2c1.3,2.5,5,3.9,9.9,3.9c0,0,0.1,0,0.2,0c5.9,0,10.4,2,12.3,5.5c1.2,2.3,1.1,5.1-0.4,7.3
			C78.1,95.9,74.2,97.6,69.5,97.6z"/>
	</g>
	<g>
		<path class="st1" d="M68.1,130.3c-26.8,0-48.6-21.8-48.6-48.6s21.8-48.6,48.6-48.6c26.8,0,48.6,21.8,48.6,48.6
			S94.9,130.3,68.1,130.3z M68.1,36c-25.2,0-45.7,20.5-45.7,45.7s20.5,45.7,45.7,45.7s45.7-20.5,45.7-45.7S93.3,36,68.1,36z"/>
	</g>
	<g>
		<path class="st1" d="M62.6,36c-0.8,0-1.5-0.7-1.5-1.5V23.9c0-0.8,0.7-1.5,1.5-1.5s1.5,0.7,1.5,1.5v10.7C64,35.4,63.4,36,62.6,36z"
			/>
	</g>
	<g>
		<path class="st1" d="M73.6,36c-0.8,0-1.5-0.7-1.5-1.5V23.9c0-0.8,0.7-1.5,1.5-1.5c0.8,0,1.5,0.7,1.5,1.5v10.7
			C75,35.4,74.4,36,73.6,36z"/>
	</g>
	<g>
		<path class="st1" d="M105.2,52.9c-0.4,0-0.7-0.1-1-0.4c-0.6-0.6-0.6-1.5,0-2.1L115,39.6l-4.8-4.8L99.4,45.6
			c-0.6,0.6-1.5,0.6-2.1,0c-0.6-0.6-0.6-1.5,0-2.1l11.9-11.9c0.5-0.5,1.5-0.5,2.1,0l6.9,6.9c0.6,0.6,0.6,1.5,0,2.1l-11.9,11.9
			C106,52.8,105.6,52.9,105.2,52.9z"/>
	</g>
	<g>
		<path class="st1" d="M80.4,24.1H55.7c-2,0-3.6-1.6-3.6-3.6v-7.3c0-2,1.6-3.6,3.6-3.6h24.7c2,0,3.6,1.6,3.6,3.6v7.3
			C84,22.5,82.4,24.1,80.4,24.1z M55.7,12.6c-0.4,0-0.7,0.3-0.7,0.7v7.3c0,0.4,0.3,0.7,0.7,0.7h24.7c0.4,0,0.7-0.3,0.7-0.7v-7.3
			c0-0.4-0.3-0.7-0.7-0.7H55.7z"/>
	</g>
	<g>
		<path class="st1" d="M68.1,120.7c-21.5,0-39-17.5-39-39s17.5-39,39-39c21.5,0,39,17.5,39,39S89.6,120.7,68.1,120.7z M68.1,45.7
			c-19.9,0-36,16.2-36,36s16.2,36.1,36,36.1s36.1-16.2,36.1-36.1S87.9,45.7,68.1,45.7z"/>
	</g>
</g>
</svg>
