<?xml version="1.0" encoding="utf-8"?>
<!-- Generator: Adobe Illustrator 21.1.0, SVG Export Plug-In . SVG Version: 6.00 Build 0)  -->
<svg version="1.1" id="Capa_1" xmlns="http://www.w3.org/2000/svg" xmlns:xlink="http://www.w3.org/1999/xlink" x="0px" y="0px"
	 viewBox="0 0 140 140" style="enable-background:new 0 0 140 140;" xml:space="preserve">
<style type="text/css">
	.st0{fill:none;stroke:#666666;stroke-width:0.75;stroke-linecap:round;stroke-linejoin:round;stroke-miterlimit:22.9256;}
	
		.st1{fill-rule:evenodd;clip-rule:evenodd;fill:none;stroke:#666666;stroke-width:0.75;stroke-linecap:round;stroke-linejoin:round;stroke-miterlimit:22.9256;}
</style>
<g>
	<g>
		<path class="st0" d="M70,16.6c29.5,0,53.4,23.9,53.4,53.4c0,29.5-23.9,53.4-53.4,53.4c-29.5,0-53.4-23.9-53.4-53.4
			C16.6,40.5,40.5,16.6,70,16.6L70,16.6z"/>
		<path class="st0" d="M70,27.6c23.4,0,42.4,19,42.4,42.4s-19,42.4-42.4,42.4c-23.4,0-42.4-19-42.4-42.4S46.6,27.6,70,27.6L70,27.6z
			"/>
		<path class="st0" d="M55.1,97V47c0-2.8,3.4-4.2,5.4-2.2l36.9,25c1.2,1.2,1.2,3.2,0,4.5l-36.9,25C58.5,101.3,55.1,99.9,55.1,97z"/>
	</g>
</g>
</svg>
