<?xml version="1.0" encoding="utf-8"?>
<!-- Generator: Adobe Illustrator 21.1.0, SVG Export Plug-In . SVG Version: 6.00 Build 0)  -->
<svg version="1.1" id="Capa_1" xmlns="http://www.w3.org/2000/svg" xmlns:xlink="http://www.w3.org/1999/xlink" x="0px" y="0px"
	 viewBox="0 0 140 140" style="enable-background:new 0 0 140 140;" xml:space="preserve">
<style type="text/css">
	.st0{display:none;fill:none;stroke:#A0693F;stroke-width:3;stroke-linecap:round;stroke-linejoin:round;stroke-miterlimit:10;}
	.st1{fill:#666666;}
</style>
<g>
	<g>
		<path class="st1" d="M71,124.5c-29.7,0-53.9-24.2-53.9-53.9S41.2,16.6,71,16.6s53.9,24.2,53.9,53.9S100.7,124.5,71,124.5z
			 M71,19.6c-28.1,0-51,22.9-51,51s22.9,51,51,51s51-22.9,51-51S99.1,19.6,71,19.6z"/>
	</g>
	<g>
		<path class="st1" d="M72.3,92.5c-2.6,0-5.4-0.6-8.3-1.7c-8.2-3.2-8.3-11.1-8.3-11.5c0-0.8,0.6-1.5,1.5-1.5c0.8,0,1.5,0.7,1.5,1.5
			c0,0.3,0.1,6.3,6.4,8.7c4.1,1.6,11.7,3.3,16.3-2.9c1.4-1.9,1.9-4.5,1.5-6.9c-0.4-1.9-1.4-4.5-4.6-6.4c-2.1-1.3-5-2-7.9-2.7
			c-5.3-1.3-10.8-2.7-12.1-7.8c-0.7-2.8,0-5.7,1.8-8c2.3-2.9,6.1-4.5,10.7-4.5c0,0,0.1,0,0.1,0C83.2,48.8,84.3,60,84.3,60.2
			c0.1,0.8-0.5,1.5-1.3,1.6c-0.9,0.1-1.5-0.5-1.6-1.3c0-0.4-0.9-8.7-10.4-8.7c0,0-0.1,0-0.1,0c-3.7,0-6.7,1.2-8.4,3.4
			c-1.3,1.6-1.7,3.6-1.3,5.5c0.8,3.4,5.2,4.5,9.9,5.6c3.1,0.8,6.2,1.6,8.7,3.1c3.2,2,5.3,4.9,6,8.4c0.6,3.3-0.1,6.7-2,9.2
			C81,90.6,77,92.4,72.3,92.5z"/>
	</g>
	<g>
		<path class="st1" d="M71,100c-0.8,0-1.5-0.7-1.5-1.5v-56c0-0.8,0.7-1.5,1.5-1.5s1.5,0.7,1.5,1.5v56C72.5,99.4,71.8,100,71,100z"/>
	</g>
	<g>
		<path class="st1" d="M71,111.9c-22.8,0-41.4-18.6-41.4-41.4S48.2,29.2,71,29.2s41.4,18.6,41.4,41.4c0,6.6-1.5,12.9-4.5,18.8
			c-0.4,0.7-1.3,1-2,0.6c-0.7-0.4-1-1.3-0.6-2c2.8-5.4,4.2-11.3,4.2-17.4c0-21.2-17.2-38.4-38.4-38.4S32.6,49.4,32.6,70.5
			S49.8,109,71,109c7.6,0,14.9-2.2,21.2-6.4c0.7-0.4,1.6-0.3,2,0.4c0.4,0.7,0.3,1.6-0.4,2C87.1,109.5,79.2,111.9,71,111.9z"/>
	</g>
	<g>
		<path class="st1" d="M106.5,90.1c-0.2,0-0.4,0-0.5-0.1c-0.4-0.2-0.7-0.5-0.9-0.9l-3.9-11.6c-0.3-0.8,0.2-1.6,0.9-1.9
			c0.7-0.3,1.6,0.2,1.9,0.9l3.3,9.9l8.8-4.9c0.7-0.4,1.6-0.1,2,0.6c0.4,0.7,0.1,1.6-0.6,2l-10.3,5.8C107,90.1,106.8,90.1,106.5,90.1
			z"/>
	</g>
</g>
</svg>
