<?xml version="1.0" encoding="utf-8"?>
<!-- Generator: Adobe Illustrator 21.1.0, SVG Export Plug-In . SVG Version: 6.00 Build 0)  -->
<svg version="1.1" id="Capa_1" xmlns="http://www.w3.org/2000/svg" xmlns:xlink="http://www.w3.org/1999/xlink" x="0px" y="0px"
	 viewBox="0 0 140 140" style="enable-background:new 0 0 140 140;" xml:space="preserve">
<style type="text/css">
	.st0{display:none;fill:none;stroke:#A0693F;stroke-width:3;stroke-linecap:round;stroke-linejoin:round;stroke-miterlimit:10;}
	.st1{fill:#666666;}
</style>
<g>
	<g>
		<path class="st1" d="M96.4,119.4H25.2c-6.5,0-11.9-5.3-11.9-11.9V36.4c0-6.5,5.3-11.9,11.9-11.9h71.2c6.5,0,11.9,5.3,11.9,11.9
			c0,0.8-0.7,1.5-1.5,1.5s-1.5-0.7-1.5-1.5c0-4.9-4-8.9-8.9-8.9H25.2c-4.9,0-8.9,4-8.9,8.9v71.2c0,4.9,4,8.9,8.9,8.9h71.2
			c4.9,0,8.9-4,8.9-8.9V77c0-0.8,0.7-1.5,1.5-1.5s1.5,0.7,1.5,1.5v30.5C108.2,114.1,102.9,119.4,96.4,119.4z"/>
	</g>
	<g>
		<path class="st1" d="M88.9,109.8H32.7c-5.3,0-9.7-4.3-9.7-9.7V43.9c0-5.3,4.3-9.7,9.7-9.7h56.3c5.3,0,9.7,4.3,9.7,9.7
			c0,0.8-0.7,1.5-1.5,1.5c-0.8,0-1.5-0.7-1.5-1.5c0-3.7-3-6.7-6.7-6.7H32.7c-3.7,0-6.7,3-6.7,6.7v56.3c0,3.7,3,6.7,6.7,6.7h56.3
			c3.7,0,6.7-3,6.7-6.7V80c0-0.8,0.7-1.5,1.5-1.5c0.8,0,1.5,0.7,1.5,1.5v20.1C98.6,105.5,94.3,109.8,88.9,109.8z"/>
	</g>
	<g>
		<path class="st1" d="M64.8,99.6c-0.1,0-0.1,0-0.2,0c-0.4-0.1-0.8-0.3-1-0.7L41.1,64.4l0,0c-1-1.6-0.9-3.5,0.4-4.9
			c1.2-1.4,3.2-1.7,4.9-0.9l18.5,9.5l59.9-30.6c2-1,4.2-0.4,5.4,1.4c1.2,1.8,0.9,4.1-0.7,5.5L65.8,99.2
			C65.5,99.5,65.1,99.6,64.8,99.6z M43.6,62.8l21.5,33l62.3-53.7c0.7-0.6,0.3-1.4,0.2-1.6c-0.1-0.2-0.7-0.9-1.5-0.4L65.5,71.1
			c-0.4,0.2-0.9,0.2-1.4,0l-19.2-9.8c-0.7-0.4-1.2,0.1-1.3,0.2C43.5,61.6,43.1,62.2,43.6,62.8L43.6,62.8z"/>
	</g>
</g>
</svg>
