<?xml version="1.0" encoding="utf-8"?>
<!-- Generator: Adobe Illustrator 21.1.0, SVG Export Plug-In . SVG Version: 6.00 Build 0)  -->
<svg version="1.1" id="Capa_1" xmlns="http://www.w3.org/2000/svg" xmlns:xlink="http://www.w3.org/1999/xlink" x="0px" y="0px"
	 viewBox="0 0 140 140" style="enable-background:new 0 0 140 140;" xml:space="preserve">
<style type="text/css">
	.st0{display:none;fill:none;stroke:#A0693F;stroke-width:3;stroke-linecap:round;stroke-linejoin:round;stroke-miterlimit:10;}
	.st1{fill:#666666;}
</style>
<g>
	<g>
		<path class="st1" d="M105.3,117.6H34.7c-6.8,0-12.3-5.5-12.3-12.3V34.7c0-6.8,5.5-12.3,12.3-12.3h70.6c6.8,0,12.3,5.5,12.3,12.3
			v70.6C117.6,112.1,112.1,117.6,105.3,117.6z M34.7,25.4c-5.1,0-9.3,4.2-9.3,9.3v70.6c0,5.1,4.2,9.3,9.3,9.3h70.6
			c5.1,0,9.3-4.2,9.3-9.3V34.7c0-5.1-4.2-9.3-9.3-9.3H34.7z"/>
	</g>
	<g>
		<g>
			<path class="st1" d="M100.2,49.2H59.4c-0.8,0-1.5-0.7-1.5-1.5s0.7-1.5,1.5-1.5h40.8c0.8,0,1.5,0.7,1.5,1.5S101,49.2,100.2,49.2z"
				/>
		</g>
		<g>
			<path class="st1" d="M100.2,71.5H59.4c-0.8,0-1.5-0.7-1.5-1.5s0.7-1.5,1.5-1.5h40.8c0.8,0,1.5,0.7,1.5,1.5S101,71.5,100.2,71.5z"
				/>
		</g>
		<g>
			<path class="st1" d="M100.2,93.8H59.4c-0.8,0-1.5-0.7-1.5-1.5s0.7-1.5,1.5-1.5h40.8c0.8,0,1.5,0.7,1.5,1.5S101,93.8,100.2,93.8z"
				/>
		</g>
		<g>
			<path class="st1" d="M44.9,54c-3.7,0-6.6-3-6.6-6.6c0-3.7,3-6.6,6.6-6.6c3.7,0,6.6,3,6.6,6.6C51.6,51,48.6,54,44.9,54z
				 M44.9,43.7c-2,0-3.6,1.6-3.6,3.6c0,2,1.6,3.6,3.6,3.6c2,0,3.6-1.6,3.6-3.6C48.6,45.3,46.9,43.7,44.9,43.7z"/>
		</g>
		<g>
			<path class="st1" d="M44.9,76.6c-3.7,0-6.6-3-6.6-6.6c0-3.7,3-6.6,6.6-6.6c3.7,0,6.6,3,6.6,6.6C51.6,73.7,48.6,76.6,44.9,76.6z
				 M44.9,66.4c-2,0-3.6,1.6-3.6,3.6c0,2,1.6,3.6,3.6,3.6c2,0,3.6-1.6,3.6-3.6C48.6,68,46.9,66.4,44.9,66.4z"/>
		</g>
		<g>
			<path class="st1" d="M44.9,99.3c-3.7,0-6.6-3-6.6-6.6c0-3.7,3-6.6,6.6-6.6c3.7,0,6.6,3,6.6,6.6C51.6,96.3,48.6,99.3,44.9,99.3z
				 M44.9,89c-2,0-3.6,1.6-3.6,3.6c0,2,1.6,3.6,3.6,3.6c2,0,3.6-1.6,3.6-3.6C48.6,90.6,46.9,89,44.9,89z"/>
		</g>
	</g>
</g>
</svg>
