<?xml version="1.0" encoding="utf-8"?>
<!-- Generator: Adobe Illustrator 21.1.0, SVG Export Plug-In . SVG Version: 6.00 Build 0)  -->
<svg version="1.1" id="Capa_1" xmlns="http://www.w3.org/2000/svg" xmlns:xlink="http://www.w3.org/1999/xlink" x="0px" y="0px"
	 viewBox="0 0 140 140" style="enable-background:new 0 0 140 140;" xml:space="preserve">
<style type="text/css">
	.st0{display:none;fill:none;stroke:#A0693F;stroke-width:3;stroke-linecap:round;stroke-linejoin:round;stroke-miterlimit:10;}
	.st1{fill:#666666;}
</style>
<g>
	<g>
		<path class="st1" d="M71.2,124.5L24.2,95.9V42l47.1,28.6V124.5z M27,94.3l41.3,25.1V72.2L27,47.1V94.3z"/>
	</g>
	<g>
		<path class="st1" d="M68.4,124.5V70.6L115.9,42v53.9L68.4,124.5z M71.2,72.2v47.2L113,94.2V47.1L71.2,72.2z"/>
	</g>
	<g>
		<path class="st1" d="M69.8,73.1L22.9,44.6L69,15.2l48.2,29.4L69.8,73.1z M28.3,44.5l41.5,25.2l41.9-25.2L69,18.6L28.3,44.5z"/>
	</g>
	<g>
		<path class="st1" d="M47.9,89.2c-2.9,0-5.2-2.5-5.2-5.7s2.3-5.7,5.2-5.7c2.9,0,5.2,2.5,5.2,5.7S50.8,89.2,47.9,89.2z M47.9,80.8
			c-1.3,0-2.3,1.2-2.3,2.8c0,1.5,1,2.8,2.3,2.8c1.3,0,2.3-1.2,2.3-2.8C50.2,82,49.2,80.8,47.9,80.8z"/>
	</g>
	<g>
		<path class="st1" d="M81.7,108.8c-2.9,0-5.2-2.5-5.2-5.7s2.3-5.7,5.2-5.7c2.9,0,5.2,2.5,5.2,5.7S84.5,108.8,81.7,108.8z
			 M81.7,100.4c-1.3,0-2.3,1.2-2.3,2.8s1,2.8,2.3,2.8c1.3,0,2.3-1.2,2.3-2.8S83,100.4,81.7,100.4z"/>
	</g>
	<g>
		<path class="st1" d="M92.1,89.2c-2.9,0-5.2-2.5-5.2-5.7s2.3-5.7,5.2-5.7c2.9,0,5.2,2.5,5.2,5.7S95,89.2,92.1,89.2z M92.1,80.8
			c-1.3,0-2.3,1.2-2.3,2.8c0,1.5,1,2.8,2.3,2.8c1.3,0,2.3-1.2,2.3-2.8C94.4,82,93.4,80.8,92.1,80.8z"/>
	</g>
	<g>
		<path class="st1" d="M102.7,71.2c-2.9,0-5.2-2.5-5.2-5.7c0-3.1,2.3-5.7,5.2-5.7c2.9,0,5.2,2.5,5.2,5.7
			C107.9,68.7,105.6,71.2,102.7,71.2z M102.7,62.8c-1.3,0-2.3,1.2-2.3,2.8c0,1.5,1,2.8,2.3,2.8c1.3,0,2.3-1.2,2.3-2.8
			C105,64,104,62.8,102.7,62.8z"/>
	</g>
	<g>
		<path class="st1" d="M46.3,49c-3.3,0-6-2-6-4.5c0-2.5,2.6-4.5,6-4.5c3.3,0,6,2,6,4.5C52.3,47,49.7,49,46.3,49z M46.3,42.9
			c-1.9,0-3.1,0.9-3.1,1.6c0,0.6,1.2,1.6,3.1,1.6c1.9,0,3.1-0.9,3.1-1.6C49.4,43.9,48.2,42.9,46.3,42.9z"/>
	</g>
	<g>
		<path class="st1" d="M70,49.7c-3.3,0-6-2-6-4.5c0-2.5,2.6-4.5,6-4.5c3.3,0,6,2,6,4.5C76,47.7,73.4,49.7,70,49.7z M70,43.6
			c-1.9,0-3.1,0.9-3.1,1.6c0,0.6,1.2,1.6,3.1,1.6c1.9,0,3.1-0.9,3.1-1.6C73.1,44.5,71.9,43.6,70,43.6z"/>
	</g>
	<g>
		<path class="st1" d="M70,64.5c-3.3,0-6-2-6-4.5c0-2.5,2.6-4.5,6-4.5c3.3,0,6,2,6,4.5C76,62.6,73.4,64.5,70,64.5z M70,58.5
			c-1.9,0-3.1,0.9-3.1,1.6c0,0.6,1.2,1.6,3.1,1.6c1.9,0,3.1-0.9,3.1-1.6C73.1,59.4,71.9,58.5,70,58.5z"/>
	</g>
	<g>
		<path class="st1" d="M69.8,34c-3.3,0-6-2-6-4.5c0-2.5,2.6-4.5,6-4.5c3.3,0,6,2,6,4.5C75.8,32.1,73.1,34,69.8,34z M69.8,28
			c-1.9,0-3.1,0.9-3.1,1.6c0,0.6,1.2,1.6,3.1,1.6c1.9,0,3.1-0.9,3.1-1.6C72.9,28.9,71.7,28,69.8,28z"/>
	</g>
	<g>
		<path class="st1" d="M92.9,49.7c-3.3,0-6-2-6-4.5c0-2.5,2.6-4.5,6-4.5c3.3,0,6,2,6,4.5C98.9,47.7,96.3,49.7,92.9,49.7z M92.9,43.6
			c-1.9,0-3.1,0.9-3.1,1.6c0,0.6,1.2,1.6,3.1,1.6c1.9,0,3.1-0.9,3.1-1.6C96,44.5,94.8,43.6,92.9,43.6z"/>
	</g>
</g>
</svg>
